<svg width="22" height="22" viewBox="0 0 22 22" fill="none" xmlns="http://www.w3.org/2000/svg">
<g clip-path="url(#clip0_2310_1870)">
<path d="M11.0013 19.7451C10.7294 19.7458 10.46 19.6927 10.2087 19.5889C9.95741 19.485 9.72911 19.3325 9.53695 19.1401L2.4557 12.0589C1.89631 11.4934 1.45504 10.8223 1.15759 10.0846C0.860153 9.34686 0.712487 8.55734 0.7232 7.762C0.72859 7.03314 0.877722 6.3125 1.16205 5.64137C1.44638 4.97023 1.86033 4.36179 2.38018 3.85088C2.90002 3.33998 3.51556 2.93665 4.19152 2.664C4.86749 2.39135 5.59061 2.25475 6.31945 2.262C7.06134 2.25453 7.79718 2.39611 8.48332 2.67837C9.16946 2.96062 9.79194 3.37778 10.3138 3.90512L11.0013 4.59262L11.5651 4.02887C12.5385 3.02964 13.8411 2.41704 15.2316 2.30454C16.622 2.19204 18.0062 2.58726 19.1276 3.417C19.7659 3.9086 20.2922 4.53056 20.6714 5.24146C21.0506 5.95236 21.274 6.7359 21.3267 7.53988C21.3794 8.34387 21.2601 9.14985 20.977 9.90416C20.6938 10.6585 20.2532 11.3438 19.6844 11.9145L12.4657 19.1401C12.2735 19.3325 12.0452 19.485 11.7939 19.5889C11.5426 19.6927 11.2732 19.7458 11.0013 19.7451ZM6.29195 3.63013C5.19918 3.62901 4.14885 4.05309 3.3632 4.81262C2.96266 5.198 2.64414 5.66035 2.42675 6.1719C2.20937 6.68346 2.09762 7.23367 2.0982 7.7895C2.09217 8.4009 2.20757 9.00742 2.4377 9.57389C2.66783 10.1404 3.00811 10.6555 3.43883 11.0895L10.5201 18.1708C10.584 18.2352 10.66 18.2863 10.7438 18.3212C10.8276 18.3561 10.9174 18.3741 11.0082 18.3741C11.099 18.3741 11.1888 18.3561 11.2726 18.3212C11.3564 18.2863 11.4324 18.2352 11.4963 18.1708L18.7219 10.9382C19.1461 10.5052 19.4738 9.98721 19.6835 9.41846C19.8932 8.84971 19.9802 8.24302 19.9388 7.63825C19.9021 7.02728 19.7338 6.43145 19.4455 5.89155C19.1571 5.35165 18.7555 4.88043 18.2682 4.51012C17.413 3.87961 16.3578 3.58149 15.2992 3.67129C14.2405 3.7611 13.2506 4.2327 12.5138 4.99825L11.4894 6.05013C11.4255 6.11456 11.3495 6.16571 11.2657 6.20061C11.1819 6.23552 11.0921 6.25349 11.0013 6.25349C10.9106 6.25349 10.8207 6.23552 10.7369 6.20061C10.6532 6.16571 10.5771 6.11456 10.5132 6.05013L9.34445 4.88137C8.53946 4.08338 7.45294 3.63395 6.31945 3.63013H6.29195Z" fill="white"/>
<g clip-path="url(#clip1_2310_1870)">
<path d="M11 21.1209L9.46 19.5809C3.74 14.5209 0 11.1109 0 6.93086C0 3.52086 2.64 0.880859 6.05 0.880859C7.92 0.880859 9.79 1.76086 11 3.19086C12.21 1.76086 14.08 0.880859 15.95 0.880859C19.36 0.880859 22 3.52086 22 6.93086C22 11.1109 18.26 14.5209 12.54 19.5809L11 21.1209Z" fill="#DB2E2E"/>
</g>
</g>
<defs>
<clipPath id="clip0_2310_1870">
<rect width="22" height="22" fill="white"/>
</clipPath>
<clipPath id="clip1_2310_1870">
<rect width="22" height="22" fill="white"/>
</clipPath>
</defs>
</svg>
