<svg width="144" height="185" viewBox="0 0 144 185" fill="none" xmlns="http://www.w3.org/2000/svg">
<path opacity="0.25" d="M77.9909 2H121.122V111.86V113.86H123.122H141.495V147.189H123.122H121.122V149.189V183H75.7722V149.189V147.189H73.7722H2V113.112L77.9909 2ZM73.7722 113.86H75.7722V111.86V90.3488C75.7722 86.3377 75.8976 80.9285 76.15 74.1115C76.3183 70.6622 76.465 68.0464 76.5899 66.2558C76.6526 65.357 76.7086 64.684 76.7575 64.2245C76.7761 64.0496 76.7923 63.919 76.8055 63.8262L78.1471 61.143H74.9111H73.5191H72.216L71.6896 62.3351C68.8637 68.7348 65.668 74.711 62.104 80.2663L41.6165 110.745L39.5221 113.86H43.2763H73.7722Z" stroke="white" stroke-width="4"/>
</svg>
