<svg width="805" height="1038" viewBox="0 0 805 1038" fill="none" xmlns="http://www.w3.org/2000/svg">
<path opacity="0.05" d="M50.0879 987.869C106.057 948.185 127.219 895.861 113.574 830.896C93.1064 733.449 115.497 671.242 177.187 666.178C238.878 661.115 297.096 731.766 312.681 816.335C328.266 900.903 414.957 903.243 449.34 886.488C483.724 869.733 503.462 835.949 502.073 799.129C499.001 717.7 387.327 652.819 389.94 577.747C392.553 502.675 484.376 475.104 541.979 542.715C544.817 546.046 547.708 549.181 550.644 552.126C609.674 611.341 687.026 593.844 722.396 549.923C783.731 473.762 755.761 392.367 657.35 337.138C509.196 250.096 430.342 154.689 420.789 50.9172" stroke="url(#paint0_linear_2312_11701)" stroke-width="100" stroke-linecap="round"/>
<defs>
<linearGradient id="paint0_linear_2312_11701" x1="50.0879" y1="987.869" x2="738.432" y2="55.2088" gradientUnits="userSpaceOnUse">
<stop stop-color="#4E7577"/>
<stop offset="1" stop-color="#65D5FC"/>
<stop offset="1" stop-color="#23445B"/>
</linearGradient>
</defs>
</svg>
