<svg width="135" height="185" viewBox="0 0 135 185" fill="none" xmlns="http://www.w3.org/2000/svg">
<path opacity="0.25" d="M65.3675 146.332H132.353V183H3.99595V153.388L47.9528 108.938L47.9646 108.926L47.9762 108.914C60.6914 95.6173 69.0651 86.4941 73.034 81.5963L73.0392 81.5898L73.0444 81.5833C76.9958 76.6231 79.8194 72.2691 81.4189 68.5442C83.1106 64.7982 83.9589 60.8639 83.9589 56.7599C83.9589 51.5437 82.2427 47.2226 78.6745 44.0401C75.1189 40.8689 70.2581 39.416 64.3695 39.416C58.2309 39.416 52.0755 41.198 45.9268 44.6614C40.3569 47.7652 34.1425 52.2416 27.2898 58.0547L2.79529 29.3837C11.5003 21.7098 18.7878 16.2622 24.6771 12.9734L24.6857 12.9686L24.6942 12.9637C30.934 9.39814 37.7092 6.67801 45.0273 4.80758C52.4058 2.94293 60.7194 2 69.9831 2C81.5561 2 91.7891 4.03674 100.723 8.0609L100.729 8.06363C109.731 12.0824 116.611 17.7914 121.453 25.1731L121.46 25.1836L121.467 25.1939C126.392 32.5022 128.86 40.7177 128.86 49.8989C128.86 56.8801 127.967 63.2949 126.2 69.1565L126.197 69.1686L126.193 69.1807C124.505 75.0489 121.846 80.8621 118.196 86.6214C114.541 92.3053 109.641 98.3562 103.471 104.774L103.461 104.783C97.372 111.202 84.2515 123.457 64.0319 141.596L63.3675 142.192V143.085V144.332V146.332H65.3675Z" stroke="white" stroke-width="4"/>
</svg>
