<svg width="129" height="185" viewBox="0 0 129 185" fill="none" xmlns="http://www.w3.org/2000/svg">
<path opacity="0.25" d="M53.666 183C44.078 183 35.205 182.309 27.0419 180.935C19.3572 179.629 11.0116 177.288 2 173.897V138.121C9.07038 141.495 16.2477 144.067 23.5308 145.833L23.5422 145.835L23.5537 145.838C31.8755 147.752 39.5774 148.72 46.65 148.72C57.4118 148.72 65.6285 147.246 70.9552 143.996L70.9633 143.991C76.5488 140.547 79.2987 135.14 79.2987 128.134C79.2987 122.882 77.9387 118.542 74.9303 115.429C72.0046 112.321 67.4728 110.188 61.6398 108.833C55.7613 107.387 48.2022 106.686 39.0186 106.686H29.9408V74.1291H39.2648C51.7202 74.1291 61.3641 72.5467 67.9627 69.1707C71.2909 67.4679 73.9013 65.2796 75.6742 62.5584C77.4538 59.8269 78.314 56.6736 78.314 53.1737C78.314 47.805 76.1773 43.598 71.8407 40.8957C67.7988 38.3265 62.5 37.1417 56.1277 37.1417C44.7205 37.1417 33.03 40.7993 21.082 47.9674L2.95926 18.7942C11.8099 12.9015 20.8087 8.68178 29.9567 6.111C39.7566 3.38011 51.0169 2 63.7591 2C82.1506 2 96.3027 5.64985 106.434 12.7181C116.48 19.7273 121.456 29.2885 121.456 41.6035C121.456 52.3186 118.201 61.4524 111.717 69.1097C105.227 76.6928 95.7642 82.3028 83.1595 85.8353L81.6993 86.2446V87.7611V88.4997V90.264L83.4499 90.4841C98.2323 92.3419 109.027 96.7326 116.113 103.431C123.146 110.08 126.749 119.215 126.749 131.088C126.749 147.201 120.398 159.762 107.638 168.977L107.633 168.981C94.8848 178.245 76.9738 183 53.666 183Z" stroke="white" stroke-width="4"/>
</svg>
