<svg width="22" height="22" viewBox="0 0 22 22" fill="none" xmlns="http://www.w3.org/2000/svg">
<g clip-path="url(#clip0_2311_3963)">
<path d="M11.0003 19.7451C10.7284 19.7458 10.4591 19.6927 10.2077 19.5889C9.95643 19.485 9.72813 19.3325 9.53597 19.1401L2.45472 12.0589C1.89533 11.4934 1.45406 10.8223 1.15662 10.0846C0.859176 9.34686 0.71151 8.55734 0.722224 7.762C0.727613 7.03314 0.876745 6.3125 1.16108 5.64137C1.44541 4.97023 1.85935 4.36179 2.3792 3.85088C2.89905 3.33998 3.51458 2.93665 4.19055 2.664C4.86651 2.39135 5.58963 2.25475 6.31847 2.262C7.06036 2.25453 7.7962 2.39611 8.48234 2.67837C9.16849 2.96062 9.79096 3.37778 10.3128 3.90512L11.0003 4.59262L11.5641 4.02887C12.5375 3.02964 13.8401 2.41704 15.2306 2.30454C16.6211 2.19204 18.0052 2.58726 19.1266 3.417C19.765 3.9086 20.2913 4.53056 20.6704 5.24146C21.0496 5.95236 21.273 6.7359 21.3257 7.53988C21.3784 8.34387 21.2592 9.14985 20.976 9.90416C20.6928 10.6585 20.2522 11.3438 19.6835 11.9145L12.4647 19.1401C12.2726 19.3325 12.0443 19.485 11.7929 19.5889C11.5416 19.6927 11.2723 19.7458 11.0003 19.7451ZM6.29097 3.63013C5.19821 3.62901 4.14787 4.05309 3.36222 4.81262C2.96168 5.198 2.64316 5.66035 2.42578 6.1719C2.2084 6.68346 2.09664 7.23367 2.09722 7.7895C2.0912 8.4009 2.20659 9.00742 2.43672 9.57389C2.66685 10.1404 3.00714 10.6555 3.43785 11.0895L10.5191 18.1708C10.583 18.2352 10.659 18.2863 10.7428 18.3212C10.8266 18.3561 10.9165 18.3741 11.0072 18.3741C11.098 18.3741 11.1878 18.3561 11.2716 18.3212C11.3554 18.2863 11.4314 18.2352 11.4953 18.1708L18.721 10.9382C19.1451 10.5052 19.4728 9.98721 19.6825 9.41846C19.8923 8.84971 19.9793 8.24302 19.9378 7.63825C19.9011 7.02728 19.7328 6.43145 19.4445 5.89155C19.1562 5.35165 18.7546 4.88043 18.2672 4.51012C17.4121 3.87961 16.3568 3.58149 15.2982 3.67129C14.2395 3.7611 13.2496 4.2327 12.5128 4.99825L11.4885 6.05013C11.4246 6.11456 11.3485 6.16571 11.2647 6.20061C11.181 6.23552 11.0911 6.25349 11.0003 6.25349C10.9096 6.25349 10.8197 6.23552 10.736 6.20061C10.6522 6.16571 10.5761 6.11456 10.5122 6.05013L9.34347 4.88137C8.53848 4.08338 7.45196 3.63395 6.31847 3.63013H6.29097Z" fill="white"/>
<g clip-path="url(#clip1_2311_3963)">
<path d="M11 21.12L9.46 19.58C3.74 14.52 0 11.11 0 6.93C0 3.52 2.64 0.880001 6.05 0.880001C7.92 0.880001 9.79 1.76 11 3.19C12.21 1.76 14.08 0.880001 15.95 0.880001C19.36 0.880001 22 3.52 22 6.93C22 11.11 18.26 14.52 12.54 19.58L11 21.12Z" fill="#DB2E2E"/>
</g>
</g>
<defs>
<clipPath id="clip0_2311_3963">
<rect width="22" height="22" fill="white"/>
</clipPath>
<clipPath id="clip1_2311_3963">
<rect width="22" height="22" fill="white"/>
</clipPath>
</defs>
</svg>
