<svg width="127" height="185" viewBox="0 0 127 185" fill="none" xmlns="http://www.w3.org/2000/svg">
<path opacity="0.25" d="M98.4818 72.007L98.4918 72.0128L98.502 72.0186C106.647 76.65 112.954 83.2294 117.442 91.8046L117.445 91.8111L117.449 91.8175C122.016 100.391 124.329 110.336 124.329 121.711C124.329 141.675 118.317 156.715 106.529 167.149L106.524 167.154C94.806 177.596 76.8179 183 52.1795 183C31.6573 183 14.9645 179.92 2 173.876V137.765C8.64633 140.596 15.9829 142.964 24.0029 144.877L24.0069 144.878C33.2532 147.064 41.2802 148.177 48.0601 148.177C57.4582 148.177 64.9934 146.217 70.3863 142.012L70.3945 142.006L70.4027 142C75.8885 137.63 78.5216 131.251 78.5216 123.208C78.5216 115.675 75.7961 109.614 70.265 105.281C64.7637 100.972 56.6625 98.9885 46.3124 98.9885C38.5506 98.9885 30.237 100.407 21.3842 103.206L5.21099 95.1747L11.8491 2H112.096V39.0695H51.9298H50.1077L49.9385 40.8838L47.6915 64.9762L47.4441 67.6291L50.0606 67.126C56.5518 65.8776 61.03 65.2416 63.5997 65.1637L63.6299 65.1628L63.6601 65.161C66.3731 64.9966 68.8704 64.915 71.1538 64.915C81.3135 64.915 90.4061 67.2895 98.4818 72.007Z" stroke="white" stroke-width="4"/>
</svg>
