<svg width="132" height="185" viewBox="0 0 132 185" fill="none" xmlns="http://www.w3.org/2000/svg">
<path opacity="0.25" d="M117.887 3.83257V37.7352C110.21 36.4346 101.972 35.7878 93.177 35.7878C76.6844 35.7878 64.0075 39.4047 55.5309 47.0075C47.0069 54.6527 42.5717 66.9322 41.8211 83.3618L41.7256 85.4531H43.819H45.2961H46.5002L47.0637 84.3889C50.609 77.6921 55.1776 72.7566 60.7421 69.4834C66.3103 66.2079 72.993 64.5283 80.8683 64.5283C96.3991 64.5283 108.185 69.5219 116.516 79.3319L116.522 79.3384L116.527 79.3448C124.979 89.127 129.334 102.922 129.334 120.995C129.334 140.378 123.877 155.464 113.161 166.496C102.468 177.422 87.4482 183 67.821 183C47.0423 183 31.0172 176.285 19.4803 163.009C7.91363 149.7 2 130.943 2 106.47C2 81.5255 5.54984 61.5331 12.5246 46.3802C19.5788 31.1508 29.8719 20.0084 43.3988 12.8465C57.0711 5.6511 74.0035 2 94.2848 2C101.04 2 108.904 2.60726 117.887 3.83257ZM52.0819 104.366L52.0739 104.375L80.8061 141.967C84.5298 137.497 86.1916 130.693 86.1916 121.979C86.1916 114.473 84.7463 108.476 81.5257 104.322C78.2303 100.071 73.3312 98.0699 67.2056 98.0699C61.1212 98.0699 56.021 100.152 52.0819 104.366Z" stroke="white" stroke-width="4"/>
</svg>
