<svg width="28" height="28" viewBox="0 0 28 28" fill="none" xmlns="http://www.w3.org/2000/svg">
<g clip-path="url(#clip0_2311_6729)">
<path d="M14 25.375C11.7502 25.375 9.551 24.7079 7.68039 23.458C5.80978 22.2081 4.35182 20.4315 3.49088 18.353C2.62993 16.2745 2.40467 13.9874 2.84357 11.7809C3.28248 9.57432 4.36584 7.54749 5.95667 5.95667C7.54749 4.36584 9.57432 3.28248 11.7809 2.84357C13.9874 2.40467 16.2745 2.62993 18.353 3.49088C20.4315 4.35182 22.2081 5.80978 23.458 7.68039C24.7079 9.551 25.375 11.7502 25.375 14C25.375 17.0168 24.1766 19.9101 22.0433 22.0433C19.9101 24.1766 17.0168 25.375 14 25.375ZM14 4.37501C12.0964 4.37501 10.2355 4.9395 8.65264 5.99711C7.06982 7.05472 5.83616 8.55794 5.10766 10.3167C4.37917 12.0754 4.18856 14.0107 4.55995 15.8777C4.93133 17.7448 5.84802 19.4598 7.1941 20.8059C8.54018 22.152 10.2552 23.0687 12.1223 23.4401C13.9893 23.8114 15.9246 23.6208 17.6833 22.8923C19.4421 22.1639 20.9453 20.9302 22.0029 19.3474C23.0605 17.7645 23.625 15.9037 23.625 14C23.625 11.4473 22.6109 8.99914 20.8059 7.1941C19.0009 5.38906 16.5527 4.37501 14 4.37501Z" fill="white"/>
<path d="M14 14.875C13.1347 14.875 12.2888 14.6184 11.5694 14.1377C10.8499 13.657 10.2892 12.9737 9.95803 12.1742C9.6269 11.3748 9.54026 10.4951 9.70907 9.64648C9.87788 8.79782 10.2946 8.01826 10.9064 7.40641C11.5183 6.79456 12.2978 6.37788 13.1465 6.20907C13.9951 6.04026 14.8748 6.1269 15.6742 6.45803C16.4737 6.78916 17.157 7.34992 17.6377 8.06938C18.1184 8.78885 18.375 9.63471 18.375 10.5C18.375 11.6603 17.9141 12.7731 17.0936 13.5936C16.2731 14.4141 15.1603 14.875 14 14.875ZM14 7.875C13.4808 7.875 12.9733 8.02896 12.5416 8.31739C12.11 8.60583 11.7735 9.0158 11.5748 9.49546C11.3761 9.97511 11.3242 10.5029 11.4254 11.0121C11.5267 11.5213 11.7767 11.989 12.1438 12.3562C12.511 12.7233 12.9787 12.9733 13.4879 13.0746C13.9971 13.1758 14.5249 13.1239 15.0045 12.9252C15.4842 12.7265 15.8942 12.3901 16.1826 11.9584C16.4711 11.5267 16.625 11.0192 16.625 10.5C16.625 9.80381 16.3484 9.13613 15.8562 8.64385C15.3639 8.15156 14.6962 7.875 14 7.875Z" fill="white"/>
<path d="M22.3562 21C22.2348 21.0008 22.1145 20.9763 22.003 20.9281C21.8915 20.8799 21.7913 20.809 21.7087 20.72C20.78 19.7069 19.6511 18.8977 18.3935 18.3434C17.1358 17.7892 15.7768 17.502 14.4025 17.5H13.5975C11.0357 17.4945 8.57225 18.4861 6.72874 20.265C6.55841 20.4055 6.34124 20.4765 6.12078 20.4636C5.90033 20.4507 5.6929 20.355 5.5401 20.1955C5.38731 20.0361 5.30045 19.8248 5.29695 19.604C5.29346 19.3832 5.37358 19.1692 5.52124 19.005C7.68764 16.9111 10.5846 15.7435 13.5975 15.75H14.4025C16.0179 15.7536 17.6152 16.0913 19.0939 16.7418C20.5725 17.3923 21.9007 18.3416 22.995 19.53C23.1106 19.6547 23.1874 19.8103 23.216 19.9779C23.2446 20.1455 23.2237 20.3178 23.1559 20.4737C23.0882 20.6296 22.9765 20.7625 22.8345 20.8559C22.6924 20.9494 22.5263 20.9995 22.3562 21Z" fill="white"/>
</g>
<defs>
<clipPath id="clip0_2311_6729">
<rect width="28" height="28" fill="white"/>
</clipPath>
</defs>
</svg>
