<svg width="24" height="24" viewBox="0 0 24 24" fill="none" xmlns="http://www.w3.org/2000/svg">
<rect width="24" height="24" fill="black"/>
<path d="M21.2806 18.424C20.9328 19.2275 20.5211 19.9672 20.0441 20.6472C19.3939 21.5743 18.8615 22.216 18.4512 22.5724C17.8151 23.1573 17.1337 23.4568 16.4039 23.4739C15.8801 23.4739 15.2483 23.3248 14.5129 23.0224C13.7751 22.7214 13.097 22.5724 12.477 22.5724C11.8268 22.5724 11.1294 22.7214 10.3835 23.0224C9.63647 23.3248 9.03466 23.4824 8.57453 23.498C7.87475 23.5278 7.17725 23.2198 6.48102 22.5724C6.03665 22.1848 5.48084 21.5204 4.81499 20.5791C4.1006 19.5739 3.51326 18.4084 3.05313 17.0795C2.56035 15.6442 2.31332 14.2543 2.31332 12.9087C2.31332 11.3673 2.64639 10.0379 3.31351 8.92385C3.83781 8.02901 4.53531 7.32313 5.40829 6.80494C6.28127 6.28674 7.22453 6.02268 8.24033 6.00578C8.79614 6.00578 9.52502 6.17771 10.4308 6.5156C11.334 6.85463 11.914 7.02656 12.1682 7.02656C12.3583 7.02656 13.0026 6.82552 14.0948 6.42474C15.1276 6.05306 15.9993 5.89916 16.7134 5.95979C18.6485 6.11595 20.1023 6.87876 21.0691 8.25304C19.3385 9.30164 18.4824 10.7703 18.4994 12.6544C18.5151 14.122 19.0474 15.3432 20.0938 16.3129C20.568 16.7629 21.0975 17.1107 21.6867 17.3578C21.5589 17.7283 21.424 18.0832 21.2806 18.424ZM16.8426 0.960138C16.8426 2.1104 16.4224 3.1844 15.5848 4.17848C14.5739 5.36024 13.3513 6.04312 12.0254 5.93537C12.0085 5.79737 11.9987 5.65213 11.9987 5.49952C11.9987 4.39527 12.4794 3.2135 13.3331 2.24725C13.7593 1.75801 14.3014 1.35123 14.9587 1.02672C15.6146 0.70706 16.235 0.53028 16.8185 0.500008C16.8355 0.65378 16.8426 0.807561 16.8426 0.960123V0.960138Z" fill="white"/>
</svg>
