<svg width="28" height="28" viewBox="0 0 28 28" fill="none" xmlns="http://www.w3.org/2000/svg">
<path d="M14 3C7.93573 3 3 7.93573 3 14C3 20.0643 7.93573 25 14 25C20.0643 25 25 20.0643 25 14C25 7.93573 20.0643 3 14 3ZM14 4.83333C19.0735 4.83333 23.1667 8.92653 23.1667 14C23.1667 19.0735 19.0735 23.1667 14 23.1667C8.92653 23.1667 4.83333 19.0735 4.83333 14C4.83333 8.92653 8.92653 4.83333 14 4.83333ZM14 8.5C11.9858 8.5 10.3333 10.1524 10.3333 12.1667H12.1667C12.1667 11.1431 12.9764 10.3333 14 10.3333C15.0236 10.3333 15.8333 11.1431 15.8333 12.1667C15.8333 12.8701 15.383 13.4917 14.7161 13.7135L14.3438 13.8281C13.5966 14.0766 13.0833 14.7905 13.0833 15.5755V16.75H14.9167V15.5755L15.2891 15.4609C16.6994 14.9917 17.6667 13.6522 17.6667 12.1667C17.6667 10.1524 16.0142 8.5 14 8.5ZM13.0833 17.6667V19.5H14.9167V17.6667H13.0833Z" fill="white"/>
</svg>
