<svg width="20" height="20" viewBox="0 0 20 20" fill="none" xmlns="http://www.w3.org/2000/svg">
<path d="M16.8333 3.125V14.375C16.8333 14.5408 16.7675 14.6997 16.6503 14.8169C16.5331 14.9342 16.3741 15 16.2083 15C16.0426 15 15.8836 14.9342 15.7664 14.8169C15.6492 14.6997 15.5833 14.5408 15.5833 14.375V3.75H4.95833C4.79257 3.75 4.6336 3.68415 4.51639 3.56694C4.39918 3.44973 4.33333 3.29076 4.33333 3.125C4.33333 2.95924 4.39918 2.80027 4.51639 2.68306C4.6336 2.56585 4.79257 2.5 4.95833 2.5H16.2083C16.3741 2.5 16.5331 2.56585 16.6503 2.68306C16.7675 2.80027 16.8333 2.95924 16.8333 3.125ZM14.3333 5.625V16.875C14.3333 17.0408 14.2675 17.1997 14.1503 17.3169C14.0331 17.4342 13.8741 17.5 13.7083 17.5H2.45833C2.29257 17.5 2.1336 17.4342 2.01639 17.3169C1.89918 17.1997 1.83333 17.0408 1.83333 16.875V5.625C1.83333 5.45924 1.89918 5.30027 2.01639 5.18306C2.1336 5.06585 2.29257 5 2.45833 5H13.7083C13.8741 5 14.0331 5.06585 14.1503 5.18306C14.2675 5.30027 14.3333 5.45924 14.3333 5.625ZM13.0833 6.25H3.08333V16.25H13.0833V6.25Z" fill="#F2F2F2"/>
</svg>
